<?xml version="1.0" encoding="iso-8859-1"?>
<!-- Generator: Adobe Illustrator 19.0.0, SVG Export Plug-In . SVG Version: 6.00 Build 0)  -->
<svg version="1.1" id="Layer_1" xmlns="http://www.w3.org/2000/svg" xmlns:xlink="http://www.w3.org/1999/xlink" x="0px" y="0px"
	 viewBox="0 0 512.001 512.001" style="enable-background:new 0 0 512.001 512.001;" xml:space="preserve">
<path style="fill:#F95428;" d="M410.408,204.484c16.266,0,29.443,13.177,29.443,29.443c0,16.255-13.177,29.443-29.443,29.443
	s-29.443-13.188-29.443-29.443C380.966,217.661,394.143,204.484,410.408,204.484z"/>
<path style="fill:#2BA5F7;" d="M256,204.484c16.255,0,29.443,13.177,29.443,29.443c0,16.255-13.188,29.443-29.443,29.443
	c-16.265,0-29.443-13.188-29.443-29.443C226.557,217.661,239.734,204.484,256,204.484z"/>
<g>
	<path style="fill:#F7B239;" d="M101.581,204.484c16.265,0,29.443,13.177,29.443,29.443c0,16.255-13.177,29.443-29.443,29.443
		c-16.255,0-29.443-13.188-29.443-29.443C72.138,217.661,85.326,204.484,101.581,204.484z"/>
	<path style="fill:#F7B239;" d="M333.199,233.927c0,42.641-34.557,77.199-77.199,77.199s-77.21-34.557-77.21-77.199
		s34.568-77.21,77.21-77.21S333.199,191.285,333.199,233.927z M285.443,233.927c0-16.265-13.188-29.443-29.443-29.443
		c-16.265,0-29.443,13.177-29.443,29.443c0,16.255,13.177,29.443,29.443,29.443C272.255,263.369,285.443,250.181,285.443,233.927z"
		/>
</g>
<path style="fill:#2BA5F7;" d="M410.408,156.717c42.641,0,77.21,34.568,77.21,77.21s-34.568,77.199-77.21,77.199
	s-77.21-34.557-77.21-77.199S367.767,156.717,410.408,156.717z M439.851,233.927c0-16.265-13.177-29.443-29.443-29.443
	s-29.443,13.177-29.443,29.443c0,16.255,13.177,29.443,29.443,29.443S439.851,250.181,439.851,233.927z"/>
<path style="fill:#F95428;" d="M178.79,233.927c0,42.641-34.568,77.199-77.21,77.199c-42.631,0-77.199-34.557-77.199-77.199
	s34.568-77.21,77.199-77.21C144.222,156.717,178.79,191.285,178.79,233.927z M131.023,233.927c0-16.265-13.177-29.443-29.443-29.443
	c-16.255,0-29.443,13.177-29.443,29.443c0,16.255,13.188,29.443,29.443,29.443C117.846,263.369,131.023,250.181,131.023,233.927z"/>
<path style="fill:#E54728;" d="M46.055,233.927c0-38.961,28.864-71.165,66.363-76.437c-3.544-0.497-7.157-0.773-10.838-0.773
	c-42.631,0-77.199,34.568-77.199,77.21s34.568,77.199,77.199,77.199c3.68,0,7.295-0.275,10.838-0.773
	C74.919,305.083,46.055,272.888,46.055,233.927z"/>
<path style="fill:#E09B2D;" d="M200.463,233.927c0-38.961,28.864-71.165,66.363-76.437c-3.544-0.497-7.157-0.773-10.838-0.773
	c-42.631,0-77.199,34.568-77.199,77.21s34.568,77.199,77.199,77.199c3.68,0,7.295-0.275,10.838-0.773
	C229.327,305.083,200.463,272.888,200.463,233.927z"/>
<path style="fill:#2197D8;" d="M354.872,233.927c0-38.961,28.864-71.165,66.363-76.437c-3.544-0.497-7.158-0.773-10.838-0.773
	c-42.631,0-77.199,34.568-77.199,77.21s34.568,77.199,77.199,77.199c3.68,0,7.295-0.275,10.838-0.773
	C383.736,305.083,354.872,272.888,354.872,233.927z"/>
<ellipse transform="matrix(0.7071 -0.7071 0.7071 0.7071 -97.3556 154.5547)" style="fill:#F96E53;" cx="137.886" cy="194.796" rx="12.884" ry="17.219"/>
<ellipse transform="matrix(0.7071 -0.7071 0.7071 0.7071 -51.4907 265.2737)" style="fill:#FCC772;" cx="294.468" cy="194.792" rx="12.884" ry="17.219"/>
<ellipse transform="matrix(0.7071 -0.7071 0.7071 0.7071 -5.6257 375.9927)" style="fill:#55BEF9;" cx="451.05" cy="194.787" rx="12.884" ry="17.219"/>
<rect x="8.127" y="308.958" style="fill:#B27214;" width="495.745" height="38.198"/>
<path style="fill:#666666;" d="M503.873,355.284H8.127c-4.49,0-8.127-3.639-8.127-8.127v-84.47
	c0-17.949,14.603-32.553,32.553-32.553h446.885c17.955,0,32.563,14.603,32.563,32.553v84.47
	C512,351.645,508.362,355.284,503.873,355.284z M16.255,339.029h479.491v-76.343c0-8.987-7.316-16.298-16.309-16.298H32.553
	c-8.987,0-16.298,7.311-16.298,16.298C16.255,262.687,16.255,339.029,16.255,339.029z"/>
<g>
</g>
<g>
</g>
<g>
</g>
<g>
</g>
<g>
</g>
<g>
</g>
<g>
</g>
<g>
</g>
<g>
</g>
<g>
</g>
<g>
</g>
<g>
</g>
<g>
</g>
<g>
</g>
<g>
</g>
</svg>
